<svg width="252" height="25" viewBox="0 0 252 25" fill="none" xmlns="http://www.w3.org/2000/svg">
<path d="M0 2.5V22.5H3.01587V5.62757H12.0216L6.24118 12.4588L14.4219 22.5H18.0115L10.1786 12.4588L15.582 5.62757L18.0952 2.5H0Z" fill="white"/>
<path d="M10.4009 19.537H4.27249V22.5H12.7337L10.4009 19.537Z" fill="white"/>
<path d="M38.5357 20L34.2757 14.92H38.0557L41.5757 19.1V20H38.5357ZM27.2157 20V5.62H38.7157C39.249 5.62 39.729 5.75333 40.1557 6.02C40.5957 6.27333 40.949 6.62 41.2157 7.06C41.4824 7.5 41.6157 7.98 41.6157 8.5V12.3C41.6157 12.82 41.4824 13.3 41.2157 13.74C40.949 14.1667 40.5957 14.5133 40.1557 14.78C39.729 15.0333 39.249 15.16 38.7157 15.16L30.0957 15.18V20H27.2157ZM30.2157 12.26H38.5757C38.6157 12.26 38.6424 12.2533 38.6557 12.24C38.6824 12.2133 38.6957 12.1867 38.6957 12.16V8.62C38.6957 8.58 38.6824 8.55333 38.6557 8.54C38.6424 8.51333 38.6157 8.5 38.5757 8.5H30.2157C30.1757 8.5 30.1424 8.51333 30.1157 8.54C30.1024 8.55333 30.0957 8.58 30.0957 8.62V12.16C30.0957 12.1867 30.1024 12.2133 30.1157 12.24C30.1424 12.2533 30.1757 12.26 30.2157 12.26ZM43.7596 20V8.48C43.7596 7.94667 43.8863 7.46667 44.1396 7.04C44.4063 6.6 44.7529 6.25333 45.1796 6C45.6196 5.73333 46.1063 5.6 46.6396 5.6H55.2596C55.7929 5.6 56.2729 5.73333 56.6996 6C57.1396 6.25333 57.4929 6.6 57.7596 7.04C58.0263 7.46667 58.1596 7.94667 58.1596 8.48V20H55.2396V15.26H46.6396V20H43.7596ZM46.6396 12.38H55.2396V8.62C55.2396 8.58 55.2263 8.55333 55.1996 8.54C55.1863 8.51333 55.1596 8.5 55.1196 8.5H46.7596C46.7196 8.5 46.6863 8.51333 46.6596 8.54C46.6463 8.55333 46.6396 8.58 46.6396 8.62V12.38ZM60.4384 20V5.6H63.4984L71.9184 15.64V5.6H74.8384V20H71.7784L63.3184 9.92V20H60.4384ZM77.099 20V5.6H79.999V11.34H83.099L87.899 5.6H90.979V6.52L85.699 12.8L90.979 19.08V20H87.899L83.099 14.26H79.999V20H77.099ZM93.0565 20V5.6H106.336V8.5H95.9765V11.34H104.316V14.26H95.9765V17.1H106.336V20H93.0565ZM108.369 20V5.6H119.869C120.402 5.6 120.882 5.73333 121.309 6C121.749 6.25333 122.102 6.6 122.369 7.04C122.636 7.46667 122.769 7.94667 122.769 8.48V17.12C122.769 17.6533 122.636 18.14 122.369 18.58C122.102 19.0067 121.749 19.3533 121.309 19.62C120.882 19.8733 120.402 20 119.869 20H108.369ZM111.349 17.1H119.729C119.769 17.1 119.796 17.0933 119.809 17.08C119.836 17.0533 119.849 17.02 119.849 16.98V8.62C119.849 8.58 119.836 8.55333 119.809 8.54C119.796 8.51333 119.769 8.5 119.729 8.5H111.349C111.322 8.5 111.296 8.51333 111.269 8.54C111.242 8.55333 111.229 8.58 111.229 8.62V16.98C111.229 17.02 111.242 17.0533 111.269 17.08C111.296 17.0933 111.322 17.1 111.349 17.1ZM131.377 20V5.6H142.337C142.857 5.6 143.331 5.73333 143.757 6C144.197 6.25333 144.551 6.6 144.817 7.04C145.084 7.46667 145.217 7.94667 145.217 8.48V11.24C145.217 11.4133 145.204 11.58 145.177 11.74C145.151 11.8867 145.111 12.0333 145.057 12.18C145.271 12.46 145.444 12.7667 145.577 13.1C145.711 13.42 145.777 13.7467 145.777 14.08V17.12C145.777 17.6533 145.644 18.14 145.377 18.58C145.111 19.0067 144.757 19.3533 144.317 19.62C143.891 19.8733 143.411 20 142.877 20H131.377ZM134.377 17.1H142.737C142.777 17.1 142.804 17.0933 142.817 17.08C142.844 17.0533 142.857 17.02 142.857 16.98V14.24C142.857 14.2133 142.844 14.1867 142.817 14.16C142.804 14.1333 142.777 14.12 142.737 14.12H134.377C134.337 14.12 134.304 14.1333 134.277 14.16C134.264 14.1867 134.257 14.2133 134.257 14.24V16.98C134.257 17.02 134.264 17.0533 134.277 17.08C134.304 17.0933 134.337 17.1 134.377 17.1ZM134.377 11.22H142.177C142.204 11.22 142.231 11.2133 142.257 11.2C142.284 11.1733 142.297 11.1467 142.297 11.12V8.62C142.297 8.58 142.284 8.55333 142.257 8.54C142.231 8.51333 142.204 8.5 142.177 8.5H134.377C134.337 8.5 134.304 8.51333 134.277 8.54C134.264 8.55333 134.257 8.58 134.257 8.62V11.12C134.257 11.1467 134.264 11.1733 134.277 11.2C134.304 11.2133 134.337 11.22 134.377 11.22ZM147.998 20V5.6H161.278V8.5H150.918V11.34H159.258V14.26H150.918V17.1H161.278V20H147.998ZM163.31 20V5.6H174.81C175.344 5.6 175.824 5.73333 176.25 6C176.69 6.25333 177.044 6.6 177.31 7.04C177.577 7.46667 177.71 7.94667 177.71 8.48V17.12C177.71 17.6533 177.577 18.14 177.31 18.58C177.044 19.0067 176.69 19.3533 176.25 19.62C175.824 19.8733 175.344 20 174.81 20H163.31ZM166.29 17.1H174.67C174.71 17.1 174.737 17.0933 174.75 17.08C174.777 17.0533 174.79 17.02 174.79 16.98V8.62C174.79 8.58 174.777 8.55333 174.75 8.54C174.737 8.51333 174.71 8.5 174.67 8.5H166.29C166.264 8.5 166.237 8.51333 166.21 8.54C166.184 8.55333 166.17 8.58 166.17 8.62V16.98C166.17 17.02 166.184 17.0533 166.21 17.08C166.237 17.0933 166.264 17.1 166.29 17.1ZM184.262 20L179.022 5.6H182.082L185.382 14.62L188.682 5.6H191.402L194.722 14.62L198.022 5.6H201.082L195.842 20H193.602L190.042 10.28L186.502 20H184.262ZM202.139 20V8.48C202.139 7.94667 202.265 7.46667 202.519 7.04C202.785 6.6 203.132 6.25333 203.559 6C203.999 5.73333 204.485 5.6 205.019 5.6H213.639C214.172 5.6 214.652 5.73333 215.079 6C215.519 6.25333 215.872 6.6 216.139 7.04C216.405 7.46667 216.539 7.94667 216.539 8.48V20H213.619V15.26H205.019V20H202.139ZM205.019 12.38H213.619V8.62C213.619 8.58 213.605 8.55333 213.579 8.54C213.565 8.51333 213.539 8.5 213.499 8.5H205.139C205.099 8.5 205.065 8.51333 205.039 8.54C205.025 8.55333 205.019 8.58 205.019 8.62V12.38ZM230.137 20L225.877 14.92H229.657L233.177 19.1V20H230.137ZM218.817 20V5.62H230.317C230.851 5.62 231.331 5.75333 231.757 6.02C232.197 6.27333 232.551 6.62 232.817 7.06C233.084 7.5 233.217 7.98 233.217 8.5V12.3C233.217 12.82 233.084 13.3 232.817 13.74C232.551 14.1667 232.197 14.5133 231.757 14.78C231.331 15.0333 230.851 15.16 230.317 15.16L221.697 15.18V20H218.817ZM221.817 12.26H230.177C230.217 12.26 230.244 12.2533 230.257 12.24C230.284 12.2133 230.297 12.1867 230.297 12.16V8.62C230.297 8.58 230.284 8.55333 230.257 8.54C230.244 8.51333 230.217 8.5 230.177 8.5H221.817C221.777 8.5 221.744 8.51333 221.717 8.54C221.704 8.55333 221.697 8.58 221.697 8.62V12.16C221.697 12.1867 221.704 12.2133 221.717 12.24C221.744 12.2533 221.777 12.26 221.817 12.26ZM238.141 20C237.621 20 237.141 19.8733 236.701 19.62C236.261 19.3533 235.915 19.0067 235.661 18.58C235.408 18.14 235.281 17.6533 235.281 17.12V15.9H238.161V16.98C238.161 17.02 238.168 17.0533 238.181 17.08C238.208 17.0933 238.235 17.1 238.261 17.1H246.641C246.668 17.1 246.695 17.0933 246.721 17.08C246.748 17.0533 246.761 17.02 246.761 16.98V14.36C246.761 14.3333 246.748 14.3133 246.721 14.3C246.695 14.2733 246.668 14.26 246.641 14.26H238.141C237.621 14.26 237.141 14.1333 236.701 13.88C236.261 13.6133 235.915 13.26 235.661 12.82C235.408 12.38 235.281 11.9 235.281 11.38V8.48C235.281 7.94667 235.408 7.46667 235.661 7.04C235.915 6.6 236.261 6.25333 236.701 6C237.141 5.73333 237.621 5.6 238.141 5.6H246.801C247.321 5.6 247.795 5.73333 248.221 6C248.661 6.25333 249.015 6.6 249.281 7.04C249.548 7.46667 249.681 7.94667 249.681 8.48V9.7H246.761V8.62C246.761 8.58 246.748 8.55333 246.721 8.54C246.695 8.51333 246.668 8.5 246.641 8.5H238.261C238.235 8.5 238.208 8.51333 238.181 8.54C238.168 8.55333 238.161 8.58 238.161 8.62V11.24C238.161 11.2667 238.168 11.2933 238.181 11.32C238.208 11.3333 238.235 11.34 238.261 11.34H246.801C247.321 11.34 247.795 11.4733 248.221 11.74C248.661 11.9933 249.015 12.34 249.281 12.78C249.548 13.22 249.681 13.7 249.681 14.22V17.12C249.681 17.6533 249.548 18.14 249.281 18.58C249.015 19.0067 248.661 19.3533 248.221 19.62C247.795 19.8733 247.321 20 246.801 20H238.141Z" fill="white"/>
</svg>
